<svg xmlns="http://www.w3.org/2000/svg" width="1920" height="150"><path d="M399,400L-14,375L567,430Z" fill="#b06b9b" stroke="#b06b9b" stroke-width="1.51"/><path d="M603,-279L829,-228L1288,-261Z" fill="#feb2c6" stroke="#feb2c6" stroke-width="1.51"/><path d="M1199,389L700,413L1451,429Z" fill="#a32986" stroke="#a32986" stroke-width="1.51"/><path d="M700,413L567,430L1451,429Z" fill="#a73c8a" stroke="#a73c8a" stroke-width="1.51"/><path d="M603,-279L1288,-261L1460,-281Z" fill="#f9a5c4" stroke="#f9a5c4" stroke-width="1.51"/><path d="M1766,329L1635,351L1902,351Z" fill="#860179" stroke="#860179" stroke-width="1.51"/><path d="M1635,351L1451,429L1902,351Z" fill="#860078" stroke="#860078" stroke-width="1.51"/><path d="M1689,-278L1745,-224L1955,-170Z" fill="#c37fac" stroke="#c37fac" stroke-width="1.51"/><path d="M1930,31L2065,106L2112,-70Z" fill="#ab488e" stroke="#ab488e" stroke-width="1.51"/><path d="M1902,351L1451,429L2115,357Z" fill="#780076" stroke="#780076" stroke-width="1.51"/><path d="M1902,351L2115,357L2120,204Z" fill="#7a0075" stroke="#7a0075" stroke-width="1.51"/><path d="M1880,224L1902,351L2120,204Z" fill="#8c0079" stroke="#8c0079" stroke-width="1.51"/><path d="M2112,-70L2065,106L2120,204Z" fill="#a43487" stroke="#a43487" stroke-width="1.51"/><path d="M1689,-278L1955,-170L2130,-259Z" fill="#b87cab" stroke="#b87cab" stroke-width="1.51"/><path d="M1955,-170L2112,-70L2130,-259Z" fill="#ab6f9f" stroke="#ab6f9f" stroke-width="1.51"/><path d="M2112,-70L2120,204L2130,-259Z" fill="#a55792" stroke="#a55792" stroke-width="1.51"/><path d="M2065,106L1880,224L2120,204Z" fill="#9c1782" stroke="#9c1782" stroke-width="1.51"/><path d="M1955,-170L1900,-119L2112,-70Z" fill="#b16b9a" stroke="#b16b9a" stroke-width="1.51"/><path d="M1900,-119L1930,31L2112,-70Z" fill="#b15d96" stroke="#b15d96" stroke-width="1.51"/><path d="M1930,31L1880,224L2065,106Z" fill="#aa2b88" stroke="#aa2b88" stroke-width="1.51"/><path d="M1778,68L1880,224L1930,31Z" fill="#b3318b" stroke="#b3318b" stroke-width="1.51"/><path d="M1810,-131L1900,-119L1955,-170Z" fill="#ba709f" stroke="#ba709f" stroke-width="1.51"/><path d="M1745,-224L1810,-131L1955,-170Z" fill="#bf77a5" stroke="#bf77a5" stroke-width="1.51"/><path d="M1880,224L1835,244L1902,351Z" fill="#90017a" stroke="#90017a" stroke-width="1.51"/><path d="M1900,-119L1810,-131L1930,31Z" fill="#b96499" stroke="#b96499" stroke-width="1.51"/><path d="M1810,-131L1778,68L1930,31Z" fill="#bc5795" stroke="#bc5795" stroke-width="1.51"/><path d="M1778,68L1835,244L1880,224Z" fill="#ab1a86" stroke="#ab1a86" stroke-width="1.51"/><path d="M1835,244L1766,329L1902,351Z" fill="#8a007a" stroke="#8a007a" stroke-width="1.51"/><path d="M1649,31L1778,68L1810,-131Z" fill="#c45a97" stroke="#c45a97" stroke-width="1.51"/><path d="M1606,-51L1649,31L1810,-131Z" fill="#ca649a" stroke="#ca649a" stroke-width="1.51"/><path d="M1778,68L1688,206L1835,244Z" fill="#b21c87" stroke="#b21c87" stroke-width="1.51"/><path d="M1688,206L1766,329L1835,244Z" fill="#9d027c" stroke="#9d027c" stroke-width="1.51"/><path d="M1745,-224L1606,-51L1810,-131Z" fill="#c975a1" stroke="#c975a1" stroke-width="1.51"/><path d="M1649,31L1688,206L1778,68Z" fill="#c2368d" stroke="#c2368d" stroke-width="1.51"/><path d="M1688,206L1635,351L1766,329Z" fill="#99007c" stroke="#99007c" stroke-width="1.51"/><path d="M1689,-278L1606,-51L1745,-224Z" fill="#ce7da8" stroke="#ce7da8" stroke-width="1.51"/><path d="M1649,31L1537,178L1688,206Z" fill="#c42b8b" stroke="#c42b8b" stroke-width="1.51"/><path d="M1537,178L1635,351L1688,206Z" fill="#ad0880" stroke="#ad0880" stroke-width="1.51"/><path d="M1492,-108L1606,-51L1689,-278Z" fill="#d57aa3" stroke="#d57aa3" stroke-width="1.51"/><path d="M1460,-281L1492,-108L1689,-278Z" fill="#db86af" stroke="#db86af" stroke-width="1.51"/><path d="M1606,-51L1503,112L1649,31Z" fill="#d25093" stroke="#d25093" stroke-width="1.51"/><path d="M1503,112L1537,178L1649,31Z" fill="#cd368e" stroke="#cd368e" stroke-width="1.51"/><path d="M125,371L-14,375L399,400Z" fill="#b673a2" stroke="#b673a2" stroke-width="1.51"/><path d="M1537,178L1451,429L1635,351Z" fill="#a0037d" stroke="#a0037d" stroke-width="1.51"/><path d="M1381,369L1451,429L1537,178Z" fill="#a40d80" stroke="#a40d80" stroke-width="1.51"/><path d="M1492,-108L1503,112L1606,-51Z" fill="#d7619a" stroke="#d7619a" stroke-width="1.51"/><path d="M1074,355L700,413L1199,389Z" fill="#af368a" stroke="#af368a" stroke-width="1.51"/><path d="M1492,-108L1375,68L1503,112Z" fill="#dc589a" stroke="#dc589a" stroke-width="1.51"/><path d="M1503,112L1309,193L1537,178Z" fill="#cf2b8f" stroke="#cf2b8f" stroke-width="1.51"/><path d="M1309,193L1381,369L1537,178Z" fill="#bd1886" stroke="#bd1886" stroke-width="1.51"/><path d="M1280,-70L1375,68L1492,-108Z" fill="#e46da2" stroke="#e46da2" stroke-width="1.51"/><path d="M1460,-281L1288,-261L1492,-108Z" fill="#e58db4" stroke="#e58db4" stroke-width="1.51"/><path d="M1288,-261L1280,-70L1492,-108Z" fill="#e885ac" stroke="#e885ac" stroke-width="1.51"/><path d="M1375,68L1309,193L1503,112Z" fill="#d83b94" stroke="#d83b94" stroke-width="1.51"/><path d="M829,-228L1034,-182L1288,-261Z" fill="#faa3bf" stroke="#faa3bf" stroke-width="1.51"/><path d="M1381,369L1199,389L1451,429Z" fill="#9b1481" stroke="#9b1481" stroke-width="1.51"/><path d="M-26,-265L301,-228L603,-279Z" fill="#fddcd7" stroke="#fddcd7" stroke-width="1.51"/><path d="M1192,-181L1280,-70L1288,-261Z" fill="#f18eb4" stroke="#f18eb4" stroke-width="1.51"/><path d="M1229,117L1309,193L1375,68Z" fill="#e03f98" stroke="#e03f98" stroke-width="1.51"/><path d="M1280,-70L1229,117L1375,68Z" fill="#e85c9f" stroke="#e85c9f" stroke-width="1.51"/><path d="M1309,193L1199,389L1381,369Z" fill="#b31b87" stroke="#b31b87" stroke-width="1.51"/><path d="M1170,-50L1229,117L1280,-70Z" fill="#ee6ca5" stroke="#ee6ca5" stroke-width="1.51"/><path d="M1034,-182L1192,-181L1288,-261Z" fill="#f599bb" stroke="#f599bb" stroke-width="1.51"/><path d="M1229,117L1161,177L1309,193Z" fill="#df3998" stroke="#df3998" stroke-width="1.51"/><path d="M1161,177L1199,389L1309,193Z" fill="#c9278c" stroke="#c9278c" stroke-width="1.51"/><path d="M1192,-181L1170,-50L1280,-70Z" fill="#f185ac" stroke="#f185ac" stroke-width="1.51"/><path d="M885,327L700,413L1074,355Z" fill="#b6428e" stroke="#b6428e" stroke-width="1.51"/><path d="M1161,177L1074,355L1199,389Z" fill="#be2c8b" stroke="#be2c8b" stroke-width="1.51"/><path d="M1170,-50L1079,45L1229,117Z" fill="#f065a2" stroke="#f065a2" stroke-width="1.51"/><path d="M1079,45L1161,177L1229,117Z" fill="#ea4f9c" stroke="#ea4f9c" stroke-width="1.51"/><path d="M603,-279L701,-240L829,-228Z" fill="#fec1cc" stroke="#fec1cc" stroke-width="1.51"/><path d="M1026,206L1074,355L1161,177Z" fill="#d1378f" stroke="#d1378f" stroke-width="1.51"/><path d="M1034,-182L1170,-50L1192,-181Z" fill="#f591b1" stroke="#f591b1" stroke-width="1.51"/><path d="M1034,-182L1071,-25L1170,-50Z" fill="#f68aad" stroke="#f68aad" stroke-width="1.51"/><path d="M1071,-25L1079,45L1170,-50Z" fill="#f378a8" stroke="#f378a8" stroke-width="1.51"/><path d="M1079,45L1026,206L1161,177Z" fill="#e84d9c" stroke="#e84d9c" stroke-width="1.51"/><path d="M1034,-182L919,-62L1071,-25Z" fill="#f991ae" stroke="#f991ae" stroke-width="1.51"/><path d="M1026,206L885,327L1074,355Z" fill="#c83b8e" stroke="#c83b8e" stroke-width="1.51"/><path d="M1071,-25L915,45L1079,45Z" fill="#f674a6" stroke="#f674a6" stroke-width="1.51"/><path d="M915,45L1026,206L1079,45Z" fill="#f25f9f" stroke="#f25f9f" stroke-width="1.51"/><path d="M919,-62L915,45L1071,-25Z" fill="#f883aa" stroke="#f883aa" stroke-width="1.51"/><path d="M915,45L869,184L1026,206Z" fill="#ee599f" stroke="#ee599f" stroke-width="1.51"/><path d="M869,184L885,327L1026,206Z" fill="#d94894" stroke="#d94894" stroke-width="1.51"/><path d="M829,-228L919,-62L1034,-182Z" fill="#fda3b8" stroke="#fda3b8" stroke-width="1.51"/><path d="M685,125L869,184L915,45Z" fill="#f26ba3" stroke="#f26ba3" stroke-width="1.51"/><path d="M742,-76L915,45L919,-62Z" fill="#f991af" stroke="#f991af" stroke-width="1.51"/><path d="M829,-228L742,-76L919,-62Z" fill="#fca6b6" stroke="#fca6b6" stroke-width="1.51"/><path d="M742,-76L685,125L915,45Z" fill="#f987ab" stroke="#f987ab" stroke-width="1.51"/><path d="M685,125L734,203L869,184Z" fill="#eb65a2" stroke="#eb65a2" stroke-width="1.51"/><path d="M869,184L734,203L885,327Z" fill="#da5397" stroke="#da5397" stroke-width="1.51"/><path d="M734,203L700,413L885,327Z" fill="#c55194" stroke="#c55194" stroke-width="1.51"/><path d="M701,-240L742,-76L829,-228Z" fill="#fdb4c1" stroke="#fdb4c1" stroke-width="1.51"/><path d="M626,184L567,430L700,413Z" fill="#be5c97" stroke="#be5c97" stroke-width="1.51"/><path d="M626,184L700,413L734,203Z" fill="#d45d98" stroke="#d45d98" stroke-width="1.51"/><path d="M701,-240L626,-66L742,-76Z" fill="#fbb2bc" stroke="#fbb2bc" stroke-width="1.51"/><path d="M626,-66L685,125L742,-76Z" fill="#fa9ab2" stroke="#fa9ab2" stroke-width="1.51"/><path d="M626,-66L553,88L685,125Z" fill="#f98fae" stroke="#f98fae" stroke-width="1.51"/><path d="M685,125L626,184L734,203Z" fill="#ec6da5" stroke="#ec6da5" stroke-width="1.51"/><path d="M603,-279L626,-66L701,-240Z" fill="#fcbfc7" stroke="#fcbfc7" stroke-width="1.51"/><path d="M603,-279L486,-118L626,-66Z" fill="#fcbec2" stroke="#fcbec2" stroke-width="1.51"/><path d="M423,271L567,430L626,184Z" fill="#cc679b" stroke="#cc679b" stroke-width="1.51"/><path d="M553,88L626,184L685,125Z" fill="#f17ba9" stroke="#f17ba9" stroke-width="1.51"/><path d="M469,-180L486,-118L603,-279Z" fill="#fdc7c9" stroke="#fdc7c9" stroke-width="1.51"/><path d="M486,-118L553,88L626,-66Z" fill="#fba9b8" stroke="#fba9b8" stroke-width="1.51"/><path d="M553,88L423,271L626,184Z" fill="#eb77a7" stroke="#eb77a7" stroke-width="1.51"/><path d="M301,-228L469,-180L603,-279Z" fill="#fed0cf" stroke="#fed0cf" stroke-width="1.51"/><path d="M486,-118L416,85L553,88Z" fill="#faa0b4" stroke="#faa0b4" stroke-width="1.51"/><path d="M416,85L423,271L553,88Z" fill="#f182ab" stroke="#f182ab" stroke-width="1.51"/><path d="M423,271L399,400L567,430Z" fill="#b96699" stroke="#b96699" stroke-width="1.51"/><path d="M-26,-265L143,-207L301,-228Z" fill="#fee0dc" stroke="#fee0dc" stroke-width="1.51"/><path d="M469,-180L259,-66L486,-118Z" fill="#fcc4c0" stroke="#fcc4c0" stroke-width="1.51"/><path d="M259,-66L416,85L486,-118Z" fill="#fbb4bb" stroke="#fbb4bb" stroke-width="1.51"/><path d="M416,85L321,260L423,271Z" fill="#e57da6" stroke="#e57da6" stroke-width="1.51"/><path d="M301,-228L259,-66L469,-180Z" fill="#fdcdc8" stroke="#fdcdc8" stroke-width="1.51"/><path d="M237,327L125,371L399,400Z" fill="#ba71a0" stroke="#ba71a0" stroke-width="1.51"/><path d="M236,120L321,260L416,85Z" fill="#f189ae" stroke="#f189ae" stroke-width="1.51"/><path d="M259,-66L236,120L416,85Z" fill="#fba3b6" stroke="#fba3b6" stroke-width="1.51"/><path d="M321,260L399,400L423,271Z" fill="#c9709d" stroke="#c9709d" stroke-width="1.51"/><path d="M321,260L237,327L399,400Z" fill="#c4729f" stroke="#c4729f" stroke-width="1.51"/><path d="M179,-76L259,-66L301,-228Z" fill="#fdcbc7" stroke="#fdcbc7" stroke-width="1.51"/><path d="M143,-207L179,-76L301,-228Z" fill="#fdd5d0" stroke="#fdd5d0" stroke-width="1.51"/><path d="M236,120L237,327L321,260Z" fill="#df7ea7" stroke="#df7ea7" stroke-width="1.51"/><path d="M236,120L90,218L237,327Z" fill="#e384ad" stroke="#e384ad" stroke-width="1.51"/><path d="M119,65L236,120L259,-66Z" fill="#fdaabc" stroke="#fdaabc" stroke-width="1.51"/><path d="M179,-76L119,65L259,-66Z" fill="#fcbcc3" stroke="#fcbcc3" stroke-width="1.51"/><path d="M119,65L90,218L236,120Z" fill="#f596b7" stroke="#f596b7" stroke-width="1.51"/><path d="M90,218L125,371L237,327Z" fill="#cc7ba7" stroke="#cc7ba7" stroke-width="1.51"/><path d="M143,-207L-57,-45L179,-76Z" fill="#fdd1cd" stroke="#fdd1cd" stroke-width="1.51"/><path d="M-57,-45L119,65L179,-76Z" fill="#fdbfc8" stroke="#fdbfc8" stroke-width="1.51"/><path d="M-57,-45L-52,35L119,65Z" fill="#fdb8c7" stroke="#fdb8c7" stroke-width="1.51"/><path d="M-20,190L90,218L119,65Z" fill="#f395ba" stroke="#f395ba" stroke-width="1.51"/><path d="M90,218L-14,375L125,371Z" fill="#c87eab" stroke="#c87eab" stroke-width="1.51"/><path d="M-26,-265L-57,-45L143,-207Z" fill="#fddcd9" stroke="#fddcd9" stroke-width="1.51"/><path d="M-52,35L-20,190L119,65Z" fill="#fba4bf" stroke="#fba4bf" stroke-width="1.51"/><path d="M-20,190L-14,375L90,218Z" fill="#da85ae" stroke="#da85ae" stroke-width="1.51"/><path d="M-124,-239L-143,-83L-57,-45Z" fill="#fedad6" stroke="#fedad6" stroke-width="1.51"/><path d="M-124,-239L-57,-45L-26,-265Z" fill="#fee1de" stroke="#fee1de" stroke-width="1.51"/><path d="M-52,35L-193,59L-20,190Z" fill="#fca9c3" stroke="#fca9c3" stroke-width="1.51"/><path d="M-193,59L-176,250L-20,190Z" fill="#f39cc0" stroke="#f39cc0" stroke-width="1.51"/><path d="M-20,190L-176,250L-14,375Z" fill="#d888b1" stroke="#d888b1" stroke-width="1.51"/><path d="M-176,250L-197,354L-14,375Z" fill="#c785b1" stroke="#c785b1" stroke-width="1.51"/><path d="M-57,-45L-143,-83L-52,35Z" fill="#fdc8cf" stroke="#fdc8cf" stroke-width="1.51"/><path d="M-143,-83L-193,59L-52,35Z" fill="#fec2cd" stroke="#fec2cd" stroke-width="1.51"/><path d="M-193,59L-143,-83L-124,-239Z" fill="#fed6d5" stroke="#fed6d5" stroke-width="1.51"/><path d="M-193,59L-197,354L-176,250Z" fill="#e694bb" stroke="#e694bb" stroke-width="1.51"/></svg>