<svg xmlns="http://www.w3.org/2000/svg" width="1920" height="1080"><path d="M310,1242L-47,1249L447,1255Z" fill="#ac6c9c" stroke="#ac6c9c" stroke-width="1.51"/><path d="M-47,1249L-221,1268L447,1255Z" fill="#ab73a4" stroke="#ab73a4" stroke-width="1.51"/><path d="M447,1255L-221,1268L672,1276Z" fill="#a96999" stroke="#a96999" stroke-width="1.51"/><path d="M1189,1266L672,1276L1651,1280Z" fill="#9c2384" stroke="#9c2384" stroke-width="1.51"/><path d="M1375,1265L1189,1266L1651,1280Z" fill="#8f0f7d" stroke="#8f0f7d" stroke-width="1.51"/><path d="M782,-206L1246,-203L1799,-204Z" fill="#f39dc2" stroke="#f39dc2" stroke-width="1.51"/><path d="M-26,-214L782,-206L1799,-204Z" fill="#ffbacb" stroke="#ffbacb" stroke-width="1.51"/><path d="M1246,-203L1700,-191L1799,-204Z" fill="#db8db5" stroke="#db8db5" stroke-width="1.51"/><path d="M1799,-204L1961,-156L2068,-125Z" fill="#ba80af" stroke="#ba80af" stroke-width="1.51"/><path d="M2068,594L1966,671L2079,825Z" fill="#a22185" stroke="#a22185" stroke-width="1.51"/><path d="M1978,920L1984,1107L2093,1128Z" fill="#7a0076" stroke="#7a0076" stroke-width="1.51"/><path d="M2068,594L2079,825L2125,876Z" fill="#981681" stroke="#981681" stroke-width="1.51"/><path d="M1978,920L2093,1128L2125,876Z" fill="#800076" stroke="#800076" stroke-width="1.51"/><path d="M2068,-125L2084,46L2131,204Z" fill="#ac6f9f" stroke="#ac6f9f" stroke-width="1.51"/><path d="M2068,594L2125,876L2165,358Z" fill="#a22d85" stroke="#a22d85" stroke-width="1.51"/><path d="M2085,426L2068,594L2165,358Z" fill="#a8438c" stroke="#a8438c" stroke-width="1.51"/><path d="M2068,-125L2131,204L2165,358Z" fill="#a96797" stroke="#a96797" stroke-width="1.51"/><path d="M2131,204L2016,254L2165,358Z" fill="#aa5c94" stroke="#aa5c94" stroke-width="1.51"/><path d="M2016,254L2085,426L2165,358Z" fill="#aa5492" stroke="#aa5492" stroke-width="1.51"/><path d="M1966,671L1997,813L2079,825Z" fill="#9d1682" stroke="#9d1682" stroke-width="1.51"/><path d="M2068,-125L2000,1L2084,46Z" fill="#b075a5" stroke="#b075a5" stroke-width="1.51"/><path d="M1959,505L2068,594L2085,426Z" fill="#ad3d8b" stroke="#ad3d8b" stroke-width="1.51"/><path d="M2084,46L1988,180L2131,204Z" fill="#ad6999" stroke="#ad6999" stroke-width="1.51"/><path d="M1988,180L2016,254L2131,204Z" fill="#af6397" stroke="#af6397" stroke-width="1.51"/><path d="M2079,825L1978,920L2125,876Z" fill="#8d077b" stroke="#8d077b" stroke-width="1.51"/><path d="M1783,1212L1651,1280L1958,1237Z" fill="#730074" stroke="#730074" stroke-width="1.51"/><path d="M1997,813L1978,920L2079,825Z" fill="#930b7d" stroke="#930b7d" stroke-width="1.51"/><path d="M2000,1L1988,180L2084,46Z" fill="#b26f9e" stroke="#b26f9e" stroke-width="1.51"/><path d="M2016,254L1959,505L2085,426Z" fill="#af4f91" stroke="#af4f91" stroke-width="1.51"/><path d="M1984,1107L2081,1197L2093,1128Z" fill="#6b0073" stroke="#6b0073" stroke-width="1.51"/><path d="M1984,1107L1958,1237L2081,1197Z" fill="#6a0072" stroke="#6a0072" stroke-width="1.51"/><path d="M1961,-156L2000,1L2068,-125Z" fill="#b47aaa" stroke="#b47aaa" stroke-width="1.51"/><path d="M1805,349L1959,505L2016,254Z" fill="#b75594" stroke="#b75594" stroke-width="1.51"/><path d="M1959,505L1966,671L2068,594Z" fill="#ac3288" stroke="#ac3288" stroke-width="1.51"/><path d="M1246,-203L1465,-148L1700,-191Z" fill="#e492b9" stroke="#e492b9" stroke-width="1.51"/><path d="M1978,920L1844,1044L1984,1107Z" fill="#840078" stroke="#840078" stroke-width="1.51"/><path d="M1758,108L1988,180L2000,1Z" fill="#ba719f" stroke="#ba719f" stroke-width="1.51"/><path d="M1788,-28L1758,108L2000,1Z" fill="#c077a5" stroke="#c077a5" stroke-width="1.51"/><path d="M1988,180L1805,349L2016,254Z" fill="#b76198" stroke="#b76198" stroke-width="1.51"/><path d="M1959,505L1810,515L1966,671Z" fill="#b5378b" stroke="#b5378b" stroke-width="1.51"/><path d="M1821,755L1978,920L1997,813Z" fill="#9d1080" stroke="#9d1080" stroke-width="1.51"/><path d="M1966,671L1821,755L1997,813Z" fill="#a71b85" stroke="#a71b85" stroke-width="1.51"/><path d="M1961,-156L1788,-28L2000,1Z" fill="#bb7baa" stroke="#bb7baa" stroke-width="1.51"/><path d="M1805,349L1810,515L1959,505Z" fill="#bb4991" stroke="#bb4991" stroke-width="1.51"/><path d="M1821,755L1787,947L1978,920Z" fill="#9d0a7f" stroke="#9d0a7f" stroke-width="1.51"/><path d="M1783,1212L1958,1237L1984,1107Z" fill="#710075" stroke="#710075" stroke-width="1.51"/><path d="M1844,1044L1783,1212L1984,1107Z" fill="#7c0177" stroke="#7c0177" stroke-width="1.51"/><path d="M1758,108L1805,349L1988,180Z" fill="#bf689b" stroke="#bf689b" stroke-width="1.51"/><path d="M1810,515L1783,671L1966,671Z" fill="#b5308b" stroke="#b5308b" stroke-width="1.51"/><path d="M1787,947L1844,1044L1978,920Z" fill="#90017a" stroke="#90017a" stroke-width="1.51"/><path d="M1006,1239L672,1276L1189,1266Z" fill="#a63788" stroke="#a63788" stroke-width="1.51"/><path d="M1799,-204L1788,-28L1961,-156Z" fill="#c281af" stroke="#c281af" stroke-width="1.51"/><path d="M1783,671L1821,755L1966,671Z" fill="#b02389" stroke="#b02389" stroke-width="1.51"/><path d="M1700,-191L1788,-28L1799,-204Z" fill="#ca85b0" stroke="#ca85b0" stroke-width="1.51"/><path d="M1758,108L1697,291L1805,349Z" fill="#c7679b" stroke="#c7679b" stroke-width="1.51"/><path d="M1805,349L1699,430L1810,515Z" fill="#c34f93" stroke="#c34f93" stroke-width="1.51"/><path d="M1690,929L1787,947L1821,755Z" fill="#a40a7f" stroke="#a40a7f" stroke-width="1.51"/><path d="M1787,947L1641,1069L1844,1044Z" fill="#93017b" stroke="#93017b" stroke-width="1.51"/><path d="M1641,1069L1783,1212L1844,1044Z" fill="#880179" stroke="#880179" stroke-width="1.51"/><path d="M1602,604L1783,671L1810,515Z" fill="#c2358d" stroke="#c2358d" stroke-width="1.51"/><path d="M1783,671L1607,739L1821,755Z" fill="#b92089" stroke="#b92089" stroke-width="1.51"/><path d="M1607,739L1690,929L1821,755Z" fill="#b21584" stroke="#b21584" stroke-width="1.51"/><path d="M1690,929L1641,1069L1787,947Z" fill="#9d017c" stroke="#9d017c" stroke-width="1.51"/><path d="M1649,36L1758,108L1788,-28Z" fill="#cb7aa6" stroke="#cb7aa6" stroke-width="1.51"/><path d="M1699,430L1602,604L1810,515Z" fill="#c8428f" stroke="#c8428f" stroke-width="1.51"/><path d="M1697,291L1699,430L1805,349Z" fill="#c75b98" stroke="#c75b98" stroke-width="1.51"/><path d="M1659,103L1697,291L1758,108Z" fill="#cc719d" stroke="#cc719d" stroke-width="1.51"/><path d="M1547,1241L1375,1265L1651,1280Z" fill="#870478" stroke="#870478" stroke-width="1.51"/><path d="M1641,1069L1651,1280L1783,1212Z" fill="#830078" stroke="#830078" stroke-width="1.51"/><path d="M1700,-191L1649,36L1788,-28Z" fill="#cd81ac" stroke="#cd81ac" stroke-width="1.51"/><path d="M1602,604L1607,739L1783,671Z" fill="#c22b8b" stroke="#c22b8b" stroke-width="1.51"/><path d="M1649,36L1659,103L1758,108Z" fill="#cf78a3" stroke="#cf78a3" stroke-width="1.51"/><path d="M1641,1069L1547,1241L1651,1280Z" fill="#880078" stroke="#880078" stroke-width="1.51"/><path d="M1607,739L1452,810L1690,929Z" fill="#b91484" stroke="#b91484" stroke-width="1.51"/><path d="M1452,810L1447,925L1690,929Z" fill="#b60f82" stroke="#b60f82" stroke-width="1.51"/><path d="M1474,256L1475,419L1697,291Z" fill="#d8659b" stroke="#d8659b" stroke-width="1.51"/><path d="M1659,103L1515,119L1697,291Z" fill="#d3729e" stroke="#d3729e" stroke-width="1.51"/><path d="M1515,119L1474,256L1697,291Z" fill="#d86f9d" stroke="#d86f9d" stroke-width="1.51"/><path d="M1697,291L1475,419L1699,430Z" fill="#d15a97" stroke="#d15a97" stroke-width="1.51"/><path d="M1475,419L1602,604L1699,430Z" fill="#d24a93" stroke="#d24a93" stroke-width="1.51"/><path d="M1465,-148L1649,36L1700,-191Z" fill="#d886b0" stroke="#d886b0" stroke-width="1.51"/><path d="M1465,-148L1503,52L1649,36Z" fill="#dc84ad" stroke="#dc84ad" stroke-width="1.51"/><path d="M1447,925L1641,1069L1690,929Z" fill="#a7017d" stroke="#a7017d" stroke-width="1.51"/><path d="M1482,1116L1547,1241L1641,1069Z" fill="#93037b" stroke="#93037b" stroke-width="1.51"/><path d="M1649,36L1515,119L1659,103Z" fill="#d579a3" stroke="#d579a3" stroke-width="1.51"/><path d="M1447,925L1482,1116L1641,1069Z" fill="#a3077f" stroke="#a3077f" stroke-width="1.51"/><path d="M1503,52L1515,119L1649,36Z" fill="#da7da6" stroke="#da7da6" stroke-width="1.51"/><path d="M1475,419L1471,602L1602,604Z" fill="#d74392" stroke="#d74392" stroke-width="1.51"/><path d="M1602,604L1471,602L1607,739Z" fill="#cd318d" stroke="#cd318d" stroke-width="1.51"/><path d="M1471,602L1452,810L1607,739Z" fill="#cb288e" stroke="#cb288e" stroke-width="1.51"/><path d="M1347,742L1452,810L1471,602Z" fill="#d22d91" stroke="#d22d91" stroke-width="1.51"/><path d="M1482,1116L1375,1265L1547,1241Z" fill="#920a7c" stroke="#920a7c" stroke-width="1.51"/><path d="M1246,-203L1309,-141L1465,-148Z" fill="#ed97bd" stroke="#ed97bd" stroke-width="1.51"/><path d="M1342,498L1471,602L1475,419Z" fill="#df4e97" stroke="#df4e97" stroke-width="1.51"/><path d="M1447,925L1324,1128L1482,1116Z" fill="#a91282" stroke="#a91282" stroke-width="1.51"/><path d="M1465,-148L1300,1L1503,52Z" fill="#e58bb3" stroke="#e58bb3" stroke-width="1.51"/><path d="M1503,52L1310,199L1515,119Z" fill="#e27ea7" stroke="#e27ea7" stroke-width="1.51"/><path d="M1310,199L1474,256L1515,119Z" fill="#e279a4" stroke="#e279a4" stroke-width="1.51"/><path d="M1474,256L1311,308L1475,419Z" fill="#e16ba1" stroke="#e16ba1" stroke-width="1.51"/><path d="M1300,1L1310,199L1503,52Z" fill="#e885ac" stroke="#e885ac" stroke-width="1.51"/><path d="M-26,-214L257,-141L782,-206Z" fill="#fedbd7" stroke="#fedbd7" stroke-width="1.51"/><path d="M1359,904L1324,1128L1447,925Z" fill="#b51785" stroke="#b51785" stroke-width="1.51"/><path d="M1309,-141L1300,1L1465,-148Z" fill="#eb92b9" stroke="#eb92b9" stroke-width="1.51"/><path d="M1290,607L1347,742L1471,602Z" fill="#db3c95" stroke="#db3c95" stroke-width="1.51"/><path d="M1324,1128L1375,1265L1482,1116Z" fill="#9c1181" stroke="#9c1181" stroke-width="1.51"/><path d="M1359,904L1447,925L1452,810Z" fill="#bf1a87" stroke="#bf1a87" stroke-width="1.51"/><path d="M1311,308L1342,498L1475,419Z" fill="#e4619f" stroke="#e4619f" stroke-width="1.51"/><path d="M1310,199L1311,308L1474,256Z" fill="#e675a5" stroke="#e675a5" stroke-width="1.51"/><path d="M1342,498L1290,607L1471,602Z" fill="#e14798" stroke="#e14798" stroke-width="1.51"/><path d="M1347,742L1359,904L1452,810Z" fill="#c9248d" stroke="#c9248d" stroke-width="1.51"/><path d="M782,-206L1032,-130L1246,-203Z" fill="#fdabc5" stroke="#fdabc5" stroke-width="1.51"/><path d="M1191,920L1154,1082L1324,1128Z" fill="#b82389" stroke="#b82389" stroke-width="1.51"/><path d="M1311,308L1246,409L1342,498Z" fill="#ea65a2" stroke="#ea65a2" stroke-width="1.51"/><path d="M1191,920L1324,1128L1359,904Z" fill="#bc1d88" stroke="#bc1d88" stroke-width="1.51"/><path d="M1347,742L1222,766L1359,904Z" fill="#d12b91" stroke="#d12b91" stroke-width="1.51"/><path d="M1324,1128L1189,1266L1375,1265Z" fill="#9d1882" stroke="#9d1882" stroke-width="1.51"/><path d="M1300,1L1182,25L1310,199Z" fill="#f18bb1" stroke="#f18bb1" stroke-width="1.51"/><path d="M1290,607L1222,766L1347,742Z" fill="#de3898" stroke="#de3898" stroke-width="1.51"/><path d="M1222,766L1191,920L1359,904Z" fill="#cd298e" stroke="#cd298e" stroke-width="1.51"/><path d="M1182,25L1140,162L1310,199Z" fill="#f18aaf" stroke="#f18aaf" stroke-width="1.51"/><path d="M1231,580L1290,607L1342,498Z" fill="#e74d9b" stroke="#e74d9b" stroke-width="1.51"/><path d="M1246,409L1231,580L1342,498Z" fill="#eb589f" stroke="#eb589f" stroke-width="1.51"/><path d="M257,-141L596,-147L782,-206Z" fill="#feced2" stroke="#feced2" stroke-width="1.51"/><path d="M1182,25L1300,1L1309,-141Z" fill="#f293ba" stroke="#f293ba" stroke-width="1.51"/><path d="M1310,199L1165,337L1311,308Z" fill="#ee78a8" stroke="#ee78a8" stroke-width="1.51"/><path d="M1154,1082L1189,1266L1324,1128Z" fill="#a82087" stroke="#a82087" stroke-width="1.51"/><path d="M1231,580L1222,766L1290,607Z" fill="#e4439a" stroke="#e4439a" stroke-width="1.51"/><path d="M1246,-203L1182,25L1309,-141Z" fill="#f399be" stroke="#f399be" stroke-width="1.51"/><path d="M1140,162L1165,337L1310,199Z" fill="#f180aa" stroke="#f180aa" stroke-width="1.51"/><path d="M1165,337L1246,409L1311,308Z" fill="#ed71a6" stroke="#ed71a6" stroke-width="1.51"/><path d="M1032,-130L1182,25L1246,-203Z" fill="#f79ebf" stroke="#f79ebf" stroke-width="1.51"/><path d="M1047,665L1222,766L1231,580Z" fill="#e6489a" stroke="#e6489a" stroke-width="1.51"/><path d="M1060,475L1231,580L1246,409Z" fill="#ef60a0" stroke="#ef60a0" stroke-width="1.51"/><path d="M1165,337L1060,475L1246,409Z" fill="#f16fa5" stroke="#f16fa5" stroke-width="1.51"/><path d="M1140,162L1067,290L1165,337Z" fill="#f383ab" stroke="#f383ab" stroke-width="1.51"/><path d="M1032,-130L1080,29L1182,25Z" fill="#f89dbc" stroke="#f89dbc" stroke-width="1.51"/><path d="M1009,820L1191,920L1222,766Z" fill="#d63892" stroke="#d63892" stroke-width="1.51"/><path d="M1060,475L1047,665L1231,580Z" fill="#ef599e" stroke="#ef599e" stroke-width="1.51"/><path d="M1047,665L1009,820L1222,766Z" fill="#e34499" stroke="#e34499" stroke-width="1.51"/><path d="M1080,29L1054,128L1140,162Z" fill="#f694b2" stroke="#f694b2" stroke-width="1.51"/><path d="M1067,1074L1006,1239L1154,1082Z" fill="#b1308a" stroke="#b1308a" stroke-width="1.51"/><path d="M1080,29L1140,162L1182,25Z" fill="#f694b3" stroke="#f694b3" stroke-width="1.51"/><path d="M1154,1082L1006,1239L1189,1266Z" fill="#a82b87" stroke="#a82b87" stroke-width="1.51"/><path d="M1067,1074L1154,1082L1191,920Z" fill="#be2d8b" stroke="#be2d8b" stroke-width="1.51"/><path d="M1019,962L1067,1074L1191,920Z" fill="#c5338c" stroke="#c5338c" stroke-width="1.51"/><path d="M1009,820L1019,962L1191,920Z" fill="#d1388f" stroke="#d1388f" stroke-width="1.51"/><path d="M1067,290L1060,475L1165,337Z" fill="#f478a8" stroke="#f478a8" stroke-width="1.51"/><path d="M1054,128L1067,290L1140,162Z" fill="#f68dae" stroke="#f68dae" stroke-width="1.51"/><path d="M782,-206L831,-142L1032,-130Z" fill="#feb5c7" stroke="#feb5c7" stroke-width="1.51"/><path d="M851,182L888,296L1054,128Z" fill="#fb96b0" stroke="#fb96b0" stroke-width="1.51"/><path d="M882,580L1047,665L1060,475Z" fill="#f4629f" stroke="#f4629f" stroke-width="1.51"/><path d="M1054,128L888,296L1067,290Z" fill="#f88dad" stroke="#f88dad" stroke-width="1.51"/><path d="M890,436L1060,475L1067,290Z" fill="#f77aa7" stroke="#f77aa7" stroke-width="1.51"/><path d="M888,296L890,436L1067,290Z" fill="#f986ab" stroke="#f986ab" stroke-width="1.51"/><path d="M938,1183L1006,1239L1067,1074Z" fill="#b0368a" stroke="#b0368a" stroke-width="1.51"/><path d="M1019,962L938,1041L1067,1074Z" fill="#c3398d" stroke="#c3398d" stroke-width="1.51"/><path d="M895,-44L1054,128L1080,29Z" fill="#fb9eb8" stroke="#fb9eb8" stroke-width="1.51"/><path d="M1032,-130L895,-44L1080,29Z" fill="#fba5bf" stroke="#fba5bf" stroke-width="1.51"/><path d="M1009,820L921,879L1019,962Z" fill="#d64292" stroke="#d64292" stroke-width="1.51"/><path d="M938,1041L938,1183L1067,1074Z" fill="#ba398c" stroke="#ba398c" stroke-width="1.51"/><path d="M896,817L1009,820L1047,665Z" fill="#e54b9a" stroke="#e54b9a" stroke-width="1.51"/><path d="M895,-44L851,182L1054,128Z" fill="#fca0b6" stroke="#fca0b6" stroke-width="1.51"/><path d="M890,436L882,580L1060,475Z" fill="#f870a3" stroke="#f870a3" stroke-width="1.51"/><path d="M882,580L896,817L1047,665Z" fill="#ed589e" stroke="#ed589e" stroke-width="1.51"/><path d="M938,1183L672,1276L1006,1239Z" fill="#aa408c" stroke="#aa408c" stroke-width="1.51"/><path d="M831,-142L895,-44L1032,-130Z" fill="#feafc4" stroke="#feafc4" stroke-width="1.51"/><path d="M921,879L938,1041L1019,962Z" fill="#ce3f8f" stroke="#ce3f8f" stroke-width="1.51"/><path d="M896,817L921,879L1009,820Z" fill="#dd4a96" stroke="#dd4a96" stroke-width="1.51"/><path d="M678,618L752,826L882,580Z" fill="#ef6ba4" stroke="#ef6ba4" stroke-width="1.51"/><path d="M756,154L851,182L895,-44Z" fill="#fca8b8" stroke="#fca8b8" stroke-width="1.51"/><path d="M882,580L752,826L896,817Z" fill="#ea5c9f" stroke="#ea5c9f" stroke-width="1.51"/><path d="M921,879L776,1058L938,1041Z" fill="#ca4891" stroke="#ca4891" stroke-width="1.51"/><path d="M938,1041L776,1058L938,1183Z" fill="#bc448f" stroke="#bc448f" stroke-width="1.51"/><path d="M776,1058L672,1276L938,1183Z" fill="#b24990" stroke="#b24990" stroke-width="1.51"/><path d="M778,492L882,580L890,436Z" fill="#f979a6" stroke="#f979a6" stroke-width="1.51"/><path d="M679,-17L756,154L895,-44Z" fill="#fcb1bf" stroke="#fcb1bf" stroke-width="1.51"/><path d="M896,817L752,826L921,879Z" fill="#de5399" stroke="#de5399" stroke-width="1.51"/><path d="M752,826L776,1058L921,879Z" fill="#d55194" stroke="#d55194" stroke-width="1.51"/><path d="M752,826L676,960L776,1058Z" fill="#d25896" stroke="#d25896" stroke-width="1.51"/><path d="M888,296L694,363L890,436Z" fill="#fa8eae" stroke="#fa8eae" stroke-width="1.51"/><path d="M694,363L778,492L890,436Z" fill="#f988ac" stroke="#f988ac" stroke-width="1.51"/><path d="M831,-142L679,-17L895,-44Z" fill="#fdb5c5" stroke="#fdb5c5" stroke-width="1.51"/><path d="M851,182L756,154L888,296Z" fill="#fb9eb3" stroke="#fb9eb3" stroke-width="1.51"/><path d="M756,154L694,363L888,296Z" fill="#fa9cb3" stroke="#fa9cb3" stroke-width="1.51"/><path d="M778,492L678,618L882,580Z" fill="#f776a6" stroke="#f776a6" stroke-width="1.51"/><path d="M620,1200L672,1276L776,1058Z" fill="#b35493" stroke="#b35493" stroke-width="1.51"/><path d="M782,-206L679,-17L831,-142Z" fill="#febcca" stroke="#febcca" stroke-width="1.51"/><path d="M678,618L547,739L752,826Z" fill="#ed70a6" stroke="#ed70a6" stroke-width="1.51"/><path d="M575,280L694,363L756,154Z" fill="#fba5b6" stroke="#fba5b6" stroke-width="1.51"/><path d="M679,-17L624,13L756,154Z" fill="#fcb6c1" stroke="#fcb6c1" stroke-width="1.51"/><path d="M694,363L580,480L778,492Z" fill="#fa8faf" stroke="#fa8faf" stroke-width="1.51"/><path d="M596,-147L679,-17L782,-206Z" fill="#fec2cc" stroke="#fec2cc" stroke-width="1.51"/><path d="M605,976L620,1200L776,1058Z" fill="#c05997" stroke="#c05997" stroke-width="1.51"/><path d="M580,480L678,618L778,492Z" fill="#f983aa" stroke="#f983aa" stroke-width="1.51"/><path d="M676,960L605,976L776,1058Z" fill="#cb5a97" stroke="#cb5a97" stroke-width="1.51"/><path d="M624,13L556,107L756,154Z" fill="#fcb7bf" stroke="#fcb7bf" stroke-width="1.51"/><path d="M556,107L575,280L756,154Z" fill="#fbb1ba" stroke="#fbb1ba" stroke-width="1.51"/><path d="M257,-141L368,-102L596,-147Z" fill="#fed4d2" stroke="#fed4d2" stroke-width="1.51"/><path d="M547,739L676,960L752,826Z" fill="#df679f" stroke="#df679f" stroke-width="1.51"/><path d="M605,976L536,1026L620,1200Z" fill="#c26098" stroke="#c26098" stroke-width="1.51"/><path d="M547,739L605,976L676,960Z" fill="#da669d" stroke="#da669d" stroke-width="1.51"/><path d="M580,480L548,613L678,618Z" fill="#f785ab" stroke="#f785ab" stroke-width="1.51"/><path d="M548,613L547,739L678,618Z" fill="#f27ca9" stroke="#f27ca9" stroke-width="1.51"/><path d="M596,-147L624,13L679,-17Z" fill="#fdc1ca" stroke="#fdc1ca" stroke-width="1.51"/><path d="M575,280L580,480L694,363Z" fill="#fa9eb4" stroke="#fa9eb4" stroke-width="1.51"/><path d="M620,1200L447,1255L672,1276Z" fill="#ab5994" stroke="#ab5994" stroke-width="1.51"/><path d="M451,332L468,435L575,280Z" fill="#fba8b8" stroke="#fba8b8" stroke-width="1.51"/><path d="M575,280L468,435L580,480Z" fill="#fb9fb5" stroke="#fb9fb5" stroke-width="1.51"/><path d="M368,-102L423,45L596,-147Z" fill="#fdcdce" stroke="#fdcdce" stroke-width="1.51"/><path d="M547,739L401,926L605,976Z" fill="#db6d9f" stroke="#db6d9f" stroke-width="1.51"/><path d="M536,1026L431,1058L620,1200Z" fill="#be6299" stroke="#be6299" stroke-width="1.51"/><path d="M431,1058L447,1255L620,1200Z" fill="#b56197" stroke="#b56197" stroke-width="1.51"/><path d="M596,-147L423,45L624,13Z" fill="#fdc5ca" stroke="#fdc5ca" stroke-width="1.51"/><path d="M423,45L556,107L624,13Z" fill="#fcc0c4" stroke="#fcc0c4" stroke-width="1.51"/><path d="M401,926L536,1026L605,976Z" fill="#cf689b" stroke="#cf689b" stroke-width="1.51"/><path d="M556,107L459,122L575,280Z" fill="#fcb8bc" stroke="#fcb8bc" stroke-width="1.51"/><path d="M385,737L401,926L547,739Z" fill="#e678a5" stroke="#e678a5" stroke-width="1.51"/><path d="M459,122L451,332L575,280Z" fill="#fbb3bb" stroke="#fbb3bb" stroke-width="1.51"/><path d="M468,435L548,613L580,480Z" fill="#fa91ae" stroke="#fa91ae" stroke-width="1.51"/><path d="M383,644L385,737L547,739Z" fill="#f081ab" stroke="#f081ab" stroke-width="1.51"/><path d="M383,644L547,739L548,613Z" fill="#f282ab" stroke="#f282ab" stroke-width="1.51"/><path d="M468,435L383,644L548,613Z" fill="#f98eae" stroke="#f98eae" stroke-width="1.51"/><path d="M423,45L459,122L556,107Z" fill="#fcc1c2" stroke="#fcc1c2" stroke-width="1.51"/><path d="M401,926L431,1058L536,1026Z" fill="#cc6b9c" stroke="#cc6b9c" stroke-width="1.51"/><path d="M153,1199L-47,1249L310,1242Z" fill="#af71a1" stroke="#af71a1" stroke-width="1.51"/><path d="M303,425L279,595L383,644Z" fill="#fa99b1" stroke="#fa99b1" stroke-width="1.51"/><path d="M270,1105L310,1242L431,1058Z" fill="#ba6d9b" stroke="#ba6d9b" stroke-width="1.51"/><path d="M431,1058L310,1242L447,1255Z" fill="#b36799" stroke="#b36799" stroke-width="1.51"/><path d="M247,175L238,258L451,332Z" fill="#fcbcbe" stroke="#fcbcbe" stroke-width="1.51"/><path d="M247,175L451,332L459,122Z" fill="#fcbdbe" stroke="#fcbdbe" stroke-width="1.51"/><path d="M451,332L303,425L468,435Z" fill="#fba7b7" stroke="#fba7b7" stroke-width="1.51"/><path d="M303,425L383,644L468,435Z" fill="#fb9cb1" stroke="#fb9cb1" stroke-width="1.51"/><path d="M423,45L247,175L459,122Z" fill="#fcc6c2" stroke="#fcc6c2" stroke-width="1.51"/><path d="M368,-102L301,-46L423,45Z" fill="#fdd1cd" stroke="#fdd1cd" stroke-width="1.51"/><path d="M238,258L303,425L451,332Z" fill="#fbb4bb" stroke="#fbb4bb" stroke-width="1.51"/><path d="M385,737L246,882L401,926Z" fill="#e17ca4" stroke="#e17ca4" stroke-width="1.51"/><path d="M401,926L270,1105L431,1058Z" fill="#c96f9d" stroke="#c96f9d" stroke-width="1.51"/><path d="M239,765L246,882L385,737Z" fill="#e882aa" stroke="#e882aa" stroke-width="1.51"/><path d="M301,-46L247,175L423,45Z" fill="#fdccc8" stroke="#fdccc8" stroke-width="1.51"/><path d="M246,882L270,1105L401,926Z" fill="#d175a0" stroke="#d175a0" stroke-width="1.51"/><path d="M279,595L239,765L383,644Z" fill="#f38daf" stroke="#f38daf" stroke-width="1.51"/><path d="M383,644L239,765L385,737Z" fill="#f087ac" stroke="#f087ac" stroke-width="1.51"/><path d="M257,-141L301,-46L368,-102Z" fill="#fdd7d3" stroke="#fdd7d3" stroke-width="1.51"/><path d="M-26,-214L51,-136L257,-141Z" fill="#fee4e1" stroke="#fee4e1" stroke-width="1.51"/><path d="M246,882L75,966L270,1105Z" fill="#d079a4" stroke="#d079a4" stroke-width="1.51"/><path d="M127,664L239,765L279,595Z" fill="#f491b3" stroke="#f491b3" stroke-width="1.51"/><path d="M147,0L247,175L301,-46Z" fill="#fdd1cd" stroke="#fdd1cd" stroke-width="1.51"/><path d="M238,258L66,328L303,425Z" fill="#fcb9c1" stroke="#fcb9c1" stroke-width="1.51"/><path d="M98,500L279,595L303,425Z" fill="#fca3b7" stroke="#fca3b7" stroke-width="1.51"/><path d="M270,1105L153,1199L310,1242Z" fill="#b56f9e" stroke="#b56f9e" stroke-width="1.51"/><path d="M66,328L98,500L303,425Z" fill="#fcb1bf" stroke="#fcb1bf" stroke-width="1.51"/><path d="M257,-141L147,0L301,-46Z" fill="#fdd8d4" stroke="#fdd8d4" stroke-width="1.51"/><path d="M75,966L97,1126L270,1105Z" fill="#c578a5" stroke="#c578a5" stroke-width="1.51"/><path d="M98,500L127,664L279,595Z" fill="#fa9cb7" stroke="#fa9cb7" stroke-width="1.51"/><path d="M147,0L129,207L247,175Z" fill="#fdcec9" stroke="#fdcec9" stroke-width="1.51"/><path d="M97,1126L153,1199L270,1105Z" fill="#ba74a3" stroke="#ba74a3" stroke-width="1.51"/><path d="M239,765L65,736L246,882Z" fill="#e987af" stroke="#e987af" stroke-width="1.51"/><path d="M129,207L238,258L247,175Z" fill="#fdc5c5" stroke="#fdc5c5" stroke-width="1.51"/><path d="M51,-136L147,0L257,-141Z" fill="#feddda" stroke="#feddda" stroke-width="1.51"/><path d="M65,736L75,966L246,882Z" fill="#e184ad" stroke="#e184ad" stroke-width="1.51"/><path d="M129,207L66,328L238,258Z" fill="#fcc3c6" stroke="#fcc3c6" stroke-width="1.51"/><path d="M127,664L65,736L239,765Z" fill="#f18fb5" stroke="#f18fb5" stroke-width="1.51"/><path d="M65,736L-68,875L75,966Z" fill="#e189b1" stroke="#e189b1" stroke-width="1.51"/><path d="M-79,179L129,207L147,0Z" fill="#fdd3cf" stroke="#fdd3cf" stroke-width="1.51"/><path d="M-70,-26L-79,179L147,0Z" fill="#fddbd7" stroke="#fddbd7" stroke-width="1.51"/><path d="M97,1126L-47,1249L153,1199Z" fill="#b476a5" stroke="#b476a5" stroke-width="1.51"/><path d="M98,500L-74,648L127,664Z" fill="#f9a0bc" stroke="#f9a0bc" stroke-width="1.51"/><path d="M51,-136L-70,-26L147,0Z" fill="#fde1dd" stroke="#fde1dd" stroke-width="1.51"/><path d="M66,328L-40,439L98,500Z" fill="#fdb6c4" stroke="#fdb6c4" stroke-width="1.51"/><path d="M-74,648L65,736L127,664Z" fill="#f498bb" stroke="#f498bb" stroke-width="1.51"/><path d="M-15,330L66,328L129,207Z" fill="#fdc4c9" stroke="#fdc4c9" stroke-width="1.51"/><path d="M-79,179L-15,330L129,207Z" fill="#fdcbcc" stroke="#fdcbcc" stroke-width="1.51"/><path d="M-86,792L-68,875L65,736Z" fill="#e990b7" stroke="#e990b7" stroke-width="1.51"/><path d="M-15,330L-40,439L66,328Z" fill="#fdbfc9" stroke="#fdbfc9" stroke-width="1.51"/><path d="M75,966L-78,1105L97,1126Z" fill="#c57dab" stroke="#c57dab" stroke-width="1.51"/><path d="M-78,1105L-47,1249L97,1126Z" fill="#b87aaa" stroke="#b87aaa" stroke-width="1.51"/><path d="M-40,439L-74,648L98,500Z" fill="#fdaac0" stroke="#fdaac0" stroke-width="1.51"/><path d="M-68,875L-78,1105L75,966Z" fill="#d183ae" stroke="#d183ae" stroke-width="1.51"/><path d="M-74,648L-86,792L65,736Z" fill="#f297bc" stroke="#f297bc" stroke-width="1.51"/><path d="M-26,-214L-70,-26L51,-136Z" fill="#fee6e3" stroke="#fee6e3" stroke-width="1.51"/><path d="M-215,118L-79,179L-70,-26Z" fill="#fedcd8" stroke="#fedcd8" stroke-width="1.51"/><path d="M-183,1044L-78,1105L-68,875Z" fill="#cf85b0" stroke="#cf85b0" stroke-width="1.51"/><path d="M-193,930L-183,1044L-68,875Z" fill="#d789b2" stroke="#d789b2" stroke-width="1.51"/><path d="M-170,423L-74,648L-40,439Z" fill="#feb0c5" stroke="#feb0c5" stroke-width="1.51"/><path d="M-202,-187L-70,-26L-26,-214Z" fill="#feebe7" stroke="#feebe7" stroke-width="1.51"/><path d="M-79,179L-160,256L-15,330Z" fill="#fdcdcf" stroke="#fdcdcf" stroke-width="1.51"/><path d="M-170,423L-40,439L-15,330Z" fill="#febdca" stroke="#febdca" stroke-width="1.51"/><path d="M-160,256L-170,423L-15,330Z" fill="#fdc6ce" stroke="#fdc6ce" stroke-width="1.51"/><path d="M-170,423L-256,630L-74,648Z" fill="#fdacc5" stroke="#fdacc5" stroke-width="1.51"/><path d="M-202,-187L-216,-35L-70,-26Z" fill="#fee9e6" stroke="#fee9e6" stroke-width="1.51"/><path d="M-78,1105L-221,1268L-47,1249Z" fill="#b37cab" stroke="#b37cab" stroke-width="1.51"/><path d="M-216,-35L-215,118L-70,-26Z" fill="#fee3df" stroke="#fee3df" stroke-width="1.51"/><path d="M-183,1044L-221,1268L-78,1105Z" fill="#bc81af" stroke="#bc81af" stroke-width="1.51"/><path d="M-239,726L-86,792L-74,648Z" fill="#f39bc0" stroke="#f39bc0" stroke-width="1.51"/><path d="M-86,792L-193,930L-68,875Z" fill="#e28eb6" stroke="#e28eb6" stroke-width="1.51"/><path d="M-256,630L-239,726L-74,648Z" fill="#f7a2c3" stroke="#f7a2c3" stroke-width="1.51"/><path d="M-215,118L-160,256L-79,179Z" fill="#fed6d4" stroke="#fed6d4" stroke-width="1.51"/><path d="M-239,726L-193,930L-86,792Z" fill="#e994bb" stroke="#e994bb" stroke-width="1.51"/><path d="M-215,118L-170,423L-160,256Z" fill="#fed0d3" stroke="#fed0d3" stroke-width="1.51"/><path d="M-215,118L-256,630L-170,423Z" fill="#ffc3cf" stroke="#ffc3cf" stroke-width="1.51"/><path d="M-193,930L-221,1268L-183,1044Z" fill="#c585b2" stroke="#c585b2" stroke-width="1.51"/><path d="M-239,726L-221,1268L-193,930Z" fill="#d48ab4" stroke="#d48ab4" stroke-width="1.51"/><path d="M-239,726L-256,630L-221,1268Z" fill="#e292b9" stroke="#e292b9" stroke-width="1.51"/><path d="M-216,-35L-256,630L-215,118Z" fill="#fed4d5" stroke="#fed4d5" stroke-width="1.51"/></svg>